<?xml version="1.0" encoding="UTF-8" standalone="no"?>
<!-- Created with Inkscape (http://www.inkscape.org/) -->

<svg
   xmlns:dc="http://purl.org/dc/elements/1.1/"
   xmlns:cc="http://creativecommons.org/ns#"
   xmlns:rdf="http://www.w3.org/1999/02/22-rdf-syntax-ns#"
   xmlns:svg="http://www.w3.org/2000/svg"
   xmlns="http://www.w3.org/2000/svg"
   xmlns:xlink="http://www.w3.org/1999/xlink"
   xmlns:sodipodi="http://sodipodi.sourceforge.net/DTD/sodipodi-0.dtd"
   xmlns:inkscape="http://www.inkscape.org/namespaces/inkscape"
   width="4025.1428"
   height="657.03094"
   id="svg8882"
   version="1.1"
   inkscape:version="0.47 r22583"
   sodipodi:docname="seascape-floor.svg">
  <defs
     id="defs8884">
    <linearGradient
       inkscape:collect="always"
       id="linearGradient10350">
      <stop
         style="stop-color:#154e73;stop-opacity:1;"
         offset="0"
         id="stop10352" />
      <stop
         style="stop-color:#154e73;stop-opacity:0;"
         offset="1"
         id="stop10354" />
    </linearGradient>
    <linearGradient
       inkscape:collect="always"
       id="linearGradient10324">
      <stop
         style="stop-color:#ffffff;stop-opacity:1"
         offset="0"
         id="stop10326" />
      <stop
         style="stop-color:#154e73;stop-opacity:1"
         offset="1"
         id="stop10328" />
    </linearGradient>
    <linearGradient
       inkscape:collect="always"
       id="linearGradient10249">
      <stop
         style="stop-color:#154e73;stop-opacity:1;"
         offset="0"
         id="stop10251" />
      <stop
         style="stop-color:#ffffff;stop-opacity:1"
         offset="1"
         id="stop10253" />
    </linearGradient>
    <inkscape:perspective
       sodipodi:type="inkscape:persp3d"
       inkscape:vp_x="0 : 526.18109 : 1"
       inkscape:vp_y="0 : 1000 : 0"
       inkscape:vp_z="744.09448 : 526.18109 : 1"
       inkscape:persp3d-origin="372.04724 : 350.78739 : 1"
       id="perspective8890" />
    <inkscape:perspective
       id="perspective9678"
       inkscape:persp3d-origin="0.5 : 0.33333333 : 1"
       inkscape:vp_z="1 : 0.5 : 1"
       inkscape:vp_y="0 : 1000 : 0"
       inkscape:vp_x="0 : 0.5 : 1"
       sodipodi:type="inkscape:persp3d" />
    <linearGradient
       inkscape:collect="always"
       xlink:href="#linearGradient10249"
       id="linearGradient10255"
       x1="1868.5714"
       y1="389.19226"
       x2="1870.8572"
       y2="1117.4534"
       gradientUnits="userSpaceOnUse" />
    <inkscape:perspective
       id="perspective10265"
       inkscape:persp3d-origin="0.5 : 0.33333333 : 1"
       inkscape:vp_z="1 : 0.5 : 1"
       inkscape:vp_y="0 : 1000 : 0"
       inkscape:vp_x="0 : 0.5 : 1"
       sodipodi:type="inkscape:persp3d" />
    <inkscape:perspective
       id="perspective10265-4"
       inkscape:persp3d-origin="0.5 : 0.33333333 : 1"
       inkscape:vp_z="1 : 0.5 : 1"
       inkscape:vp_y="0 : 1000 : 0"
       inkscape:vp_x="0 : 0.5 : 1"
       sodipodi:type="inkscape:persp3d" />
    <inkscape:perspective
       id="perspective10265-2"
       inkscape:persp3d-origin="0.5 : 0.33333333 : 1"
       inkscape:vp_z="1 : 0.5 : 1"
       inkscape:vp_y="0 : 1000 : 0"
       inkscape:vp_x="0 : 0.5 : 1"
       sodipodi:type="inkscape:persp3d" />
    <inkscape:perspective
       id="perspective10265-7"
       inkscape:persp3d-origin="0.5 : 0.33333333 : 1"
       inkscape:vp_z="1 : 0.5 : 1"
       inkscape:vp_y="0 : 1000 : 0"
       inkscape:vp_x="0 : 0.5 : 1"
       sodipodi:type="inkscape:persp3d" />
    <inkscape:perspective
       id="perspective10265-5"
       inkscape:persp3d-origin="0.5 : 0.33333333 : 1"
       inkscape:vp_z="1 : 0.5 : 1"
       inkscape:vp_y="0 : 1000 : 0"
       inkscape:vp_x="0 : 0.5 : 1"
       sodipodi:type="inkscape:persp3d" />
    <radialGradient
       inkscape:collect="always"
       xlink:href="#linearGradient10324"
       id="radialGradient10332"
       cx="2148.6426"
       cy="800.04169"
       fx="2148.6426"
       fy="800.04169"
       r="47.009537"
       gradientTransform="matrix(1.583258,0.3431804,-0.27121765,1.2512589,-1023.0369,-909.4876)"
       gradientUnits="userSpaceOnUse" />
    <radialGradient
       inkscape:collect="always"
       xlink:href="#linearGradient10324"
       id="radialGradient10340"
       cx="3824.3789"
       cy="761.55792"
       fx="3824.3789"
       fy="761.55792"
       r="25.549358"
       gradientTransform="matrix(2.0112361,0.70814358,-0.36344396,1.0322364,-3590.5663,-2732.7593)"
       gradientUnits="userSpaceOnUse" />
    <radialGradient
       inkscape:collect="always"
       xlink:href="#linearGradient10324"
       id="radialGradient10348"
       cx="3773.8108"
       cy="763.80981"
       fx="3773.8108"
       fy="763.80981"
       r="32.713219"
       gradientTransform="matrix(1.2736892,0.94591139,-0.61407062,0.82685875,-563.81785,-3433.5707)"
       gradientUnits="userSpaceOnUse" />
    <linearGradient
       inkscape:collect="always"
       xlink:href="#linearGradient10350"
       id="linearGradient10356"
       x1="1571.6575"
       y1="728.9007"
       x2="1701.5757"
       y2="823.60291"
       gradientUnits="userSpaceOnUse" />
    <filter
       inkscape:collect="always"
       id="filter10358"
       color-interpolation-filters="sRGB">
      <feGaussianBlur
         inkscape:collect="always"
         stdDeviation="0.990607"
         id="feGaussianBlur10360" />
    </filter>
    <filter
       inkscape:collect="always"
       id="filter10362"
       color-interpolation-filters="sRGB">
      <feGaussianBlur
         inkscape:collect="always"
         stdDeviation="0.990607"
         id="feGaussianBlur10364" />
    </filter>
    <filter
       inkscape:collect="always"
       id="filter10366"
       color-interpolation-filters="sRGB">
      <feGaussianBlur
         inkscape:collect="always"
         stdDeviation="0.990607"
         id="feGaussianBlur10368" />
    </filter>
    <filter
       inkscape:collect="always"
       id="filter10370"
       color-interpolation-filters="sRGB">
      <feGaussianBlur
         inkscape:collect="always"
         stdDeviation="0.990607"
         id="feGaussianBlur10372" />
    </filter>
    <filter
       inkscape:collect="always"
       id="filter10374"
       x="-0.026444511"
       width="1.052889"
       y="-0.14709754"
       height="1.2941951"
       color-interpolation-filters="sRGB">
      <feGaussianBlur
         inkscape:collect="always"
         stdDeviation="0.990607"
         id="feGaussianBlur10376" />
    </filter>
    <radialGradient
       inkscape:collect="always"
       xlink:href="#linearGradient10324"
       id="radialGradient10384"
       cx="3037.8723"
       cy="805.37524"
       fx="3037.8723"
       fy="805.37524"
       r="100.91867"
       gradientTransform="matrix(0.99999829,-2.1383343e-7,1.3121344e-7,0.61362357,0.00516251,311.17865)"
       gradientUnits="userSpaceOnUse" />
    <filter
       inkscape:collect="always"
       id="filter10393"
       color-interpolation-filters="sRGB">
      <feGaussianBlur
         inkscape:collect="always"
         stdDeviation="2.5481468"
         id="feGaussianBlur10395" />
    </filter>
  </defs>
  <sodipodi:namedview
     id="base"
     pagecolor="#ffffff"
     bordercolor="#666666"
     borderopacity="1.0"
     inkscape:pageopacity="0.0"
     inkscape:pageshadow="2"
     inkscape:zoom="0.12374369"
     inkscape:cx="3046.8945"
     inkscape:cy="70.463827"
     inkscape:document-units="px"
     inkscape:current-layer="layer1"
     showgrid="false"
     inkscape:window-width="1280"
     inkscape:window-height="951"
     inkscape:window-x="-3"
     inkscape:window-y="-3"
     inkscape:window-maximized="1" />
  <metadata
     id="metadata8887">
    <rdf:RDF>
      <cc:Work
         rdf:about="">
        <dc:format>image/svg+xml</dc:format>
        <dc:type
           rdf:resource="http://purl.org/dc/dcmitype/StillImage" />
        <dc:title></dc:title>
      </cc:Work>
    </rdf:RDF>
  </metadata>
  <g
     inkscape:label="Ebene 1"
     inkscape:groupmode="layer"
     id="layer1"
     transform="translate(1690.4286,-351.04555)">
    <path
       style="fill:url(#linearGradient10255);fill-opacity:1;stroke:none"
       d="m 36.365492,705.23851 c 163.634278,-53.12834 324.936988,46.32727 468.710778,-4.04061 174.43728,-61.11015 362.06088,31.21504 541.44173,-12.12183 46.9484,-11.34234 105.9114,-26.58904 218.193,8.08122 180.7329,55.80662 159.5879,23.54856 258.599,0 89.6068,-21.31185 180.9261,-24.90753 242.4366,0 113.15,45.818 260.4137,24.14375 315.1676,12.12183 86.1331,-18.91165 179.5235,-21.28928 270.7209,0 134.8842,31.48758 164.8726,6.57842 218.193,-12.12183 72.028,-25.26128 140.2603,-23.91324 210.1117,-20.20305 132.5039,7.03802 261.3492,93.35987 400.0204,32.32488 96.3616,-42.41278 228.3971,19.11957 242.4366,4.04061 18.0769,-19.41538 259.2729,-35.9661 379.8174,-8.08122 80.8952,18.71305 167.0119,16.96219 250.5178,-8.08122 l 0.9823,268.557 -4025.142871,-8.57143 7.794063,-251.90435 z"
       id="path9684"
       transform="translate(-1719,42.362183)"
       sodipodi:nodetypes="csssssssssssscccc" />
    <path
       style="fill:#154e73;fill-opacity:1;stroke:none"
       d="m 274.76149,798.17254 c -7.48435,-10.24161 8.63709,-35.99881 35.35534,-91.92388 11.46178,-36.70221 5.69082,-73.40442 -23.23351,-110.10663 -30.58217,-32.56135 -67.91462,-38.12161 -88.89342,-109.09647 1.4145,-33.13166 12.09163,-23.03773 21.2132,-20.20305 11.87486,23.45355 -17.39656,18.81877 25.25381,67.68022 19.76383,22.642 44.13544,34.11242 60.60916,53.53808 8.12485,9.58075 2.94634,-50.24101 -7.07107,-58.58885 -10.36566,-33.77052 -22.2976,-58.14338 -35.35534,-75.76144 -22.00974,-42.95743 -30.32012,-76.78195 -36.36549,-109.09647 -0.22551,-28.65854 18.47492,-48.76571 27.27412,-26.26397 -1.51116,33.70461 -0.70897,66.94655 11.11168,97.9848 11.27439,25.79996 12.45708,24.6887 16.16244,30.30458 1.56317,-29.12723 7.1384,-30.16998 11.11168,-42.42641 21.01356,-39.82651 30.05685,-25.41455 34.34518,-22.22336 10.37556,26.17261 -7.55401,37.85177 -12.12183,52.52794 -13.70755,41.09967 7.98012,72.08643 12.12183,108.08632 33.40568,110.40172 14.16668,82.49692 16.16244,138.3909 6.42686,-15.18151 6.18494,-23.69425 22.22336,-48.48733 14.75915,-22.91089 27.48698,-46.32962 52.52793,-66.67006 15.49939,-20.40701 28.94832,-42.09555 23.23351,-75.76144 -9.88921,-36.95101 -5.54688,-45.43896 6.06092,-39.39595 5.03973,12.66287 8.68485,8.59045 16.16244,50.50762 3.04908,12.77664 2.64296,29.00848 -5.05077,52.52794 10.78795,-15.6275 6.75782,-11.84597 30.30457,-42.42641 17.09621,-10.87787 43.20755,-35.03127 48.48734,3.03046 20.30459,3.08165 -9.55854,21.88153 -39.39596,43.43656 -0.69656,3.05358 -17.01804,21.73208 -36.36549,43.43656 -16.38214,13.81278 -6.09101,16.51169 -51.51778,42.4264 -14.17571,7.67735 -28.99902,14.05952 -35.35534,37.37565 -5.68638,37.89946 -27.79594,72.80073 -12.12183,114.14723 3.88207,10.24046 -44.08364,-29.15204 -57.57869,19.1929 -2.6395,9.4558 -16.94814,12.57066 -29.29443,-16.16244 z"
       id="path9686"
       transform="translate(-1719,42.362183)"
       sodipodi:nodetypes="cccccsscccccccccccccccccccccccssc" />
    <path
       style="color:#000000;fill:#154e73;fill-opacity:1;fill-rule:nonzero;stroke:none;stroke-width:1px;marker:none;visibility:visible;display:inline;overflow:visible;enable-background:accumulate"
       d="m 1119.249,774.93903 c 12.9473,-7.27745 23.391,-20.39673 28.2843,-46.46701 15.6401,-90.08832 27.0813,-101.34159 37.3756,-110.10663 14.2407,-25.23205 38.2322,-49.97656 1.0102,-77.78175 -74.5028,-56.6594 -40.5931,-99.15868 1.0101,-110.10662 42.2048,-15.02528 53.1585,-28.39589 56.5686,-40.40611 10.4189,-36.6946 17.6032,-21.67454 24.2436,-14.14213 26.5983,32.59377 -10.9573,52.35677 -35.3553,74.75129 -44.081,17.50931 -83.3421,35.01862 -32.3249,52.52793 30.118,19.65942 75.4604,47.40185 24.2437,111.11678 -31.2234,38.8427 -40.1212,72.34677 -41.4163,105.05586 -5.6836,38.34584 69.4068,63.22517 40.4061,74.75129 -26.9374,-3.05187 -44.8673,-30.84295 -76.7716,0 -9.2171,8.9105 -36.3114,-0.77832 -27.2741,-19.1929 z"
       id="path9709"
       transform="translate(-1719,42.362183)"
       sodipodi:nodetypes="cccccscccsccsc" />
    <path
       style="fill:url(#linearGradient10356);fill-opacity:1;stroke:#154e73;stroke-width:2.29999995;stroke-linecap:round;stroke-linejoin:round;stroke-miterlimit:4;stroke-opacity:1;stroke-dasharray:none"
       d="m 1572.8075,741.604 c 1.3034,36.84838 52.8615,82.32434 56.5686,80.8122 42.5087,-4.60527 83.1873,-11.29007 67.6802,-81.82235 -7.1119,-18.08476 -103.0508,-50.19328 -124.2488,1.01015 z"
       id="path9711"
       transform="translate(-1719,42.362183)"
       sodipodi:nodetypes="cccc" />
    <path
       style="fill:none;stroke:#154e73;stroke-width:2.0999999;stroke-linecap:round;stroke-linejoin:round;stroke-miterlimit:4;stroke-opacity:1;stroke-dasharray:none;filter:url(#filter10362)"
       d="m 1587.9597,738.57354 c 19.2354,20.32943 61.0256,61.30915 50.5077,71.72083"
       id="path9713"
       transform="translate(-1719,42.362183)"
       sodipodi:nodetypes="cc" />
    <path
       style="fill:none;stroke:#154e73;stroke-width:2.0999999;stroke-linecap:round;stroke-linejoin:round;stroke-miterlimit:4;stroke-opacity:1;stroke-dasharray:none;filter:url(#filter10366)"
       d="m 1587.9598,733.52278 c 24.2529,19.86919 87.3599,60.86255 75.7614,69.70053"
       id="path9715"
       transform="translate(-1719,42.362183)"
       sodipodi:nodetypes="cc" />
    <path
       style="fill:none;stroke:#154e73;stroke-width:2.0999999;stroke-linecap:round;stroke-linejoin:round;stroke-miterlimit:4;stroke-opacity:1;stroke-dasharray:none;filter:url(#filter10358)"
       d="m 1680.8939,791.10148 c -2.0104,-14.3422 -60.8665,-38.03321 -88.8934,-57.5787 32.344,13.13199 83.1237,29.29443 93.9441,42.42641"
       id="path9717"
       transform="translate(-1719,42.362183)"
       sodipodi:nodetypes="ccc" />
    <path
       style="fill:none;stroke:#154e73;stroke-width:2.0999999;stroke-linecap:round;stroke-linejoin:round;stroke-miterlimit:4;stroke-opacity:1;stroke-dasharray:none;filter:url(#filter10370)"
       d="m 1588.9699,731.50248 c 39.1122,10.76835 83.4558,17.97857 102.0255,31.31472"
       id="path9719"
       transform="translate(-1719,42.362183)"
       sodipodi:nodetypes="cc" />
    <path
       style="fill:none;stroke:#154e73;stroke-width:2.0999999;stroke-linecap:round;stroke-linejoin:round;stroke-miterlimit:4;stroke-opacity:1;stroke-dasharray:none;filter:url(#filter10374)"
       d="m 1598.0613,730.49232 c 26.0668,4.12259 59.0416,-2.34573 89.9036,16.16245"
       id="path9721"
       transform="translate(-1719,42.362183)"
       sodipodi:nodetypes="cc" />
    <path
       style="color:#000000;fill:#154e73;fill-opacity:1;fill-rule:nonzero;stroke:none;stroke-width:1px;marker:none;visibility:visible;display:inline;overflow:visible;enable-background:accumulate"
       d="m 2247.5894,784.03041 c 8.8719,11.85775 18.7431,15.72003 30.3046,6.06091 18.9197,-32.23774 6.906,-60.05644 9.0914,-89.90358 -2.0161,-44.81113 -8.8447,-58.34026 -16.1625,-68.69037 -30.728,-36.23443 -0.2089,-60.98503 8.0812,-89.90357 25.3561,-63.73408 19.2741,-92.33148 -1.0101,-105.05587 -9.7857,-18.32262 -22.4471,-23.79792 -29.2945,-20.20305 -5.533,16.51632 11.6719,19.72866 14.1422,32.32488 24.4039,50.26703 -0.7469,54.79121 -8.0812,75.76144 -46.0413,72.91637 -9.9292,94.97594 -5.0508,136.3706 21.9291,41.23824 10.2508,58.09655 13.132,81.82235 -24.4647,44.3388 -11.1843,30.24748 -15.1523,41.41626 z"
       id="path9723"
       transform="translate(-1719,42.362183)"
       sodipodi:nodetypes="cccccccccccc" />
    <path
       style="color:#000000;fill:#154e73;fill-opacity:1;fill-rule:nonzero;stroke:none;stroke-width:1px;marker:none;visibility:visible;display:inline;overflow:visible;enable-background:accumulate"
       d="m 2294.0564,804.23346 c 0.2492,27.6878 19.8396,27.74518 38.3858,29.29442 0.3192,-8.52117 -0.2418,-15.45777 13.132,-47.47717 9.142,-9.98765 8.5203,-41.9435 7.0711,-75.76144 -13.0148,-41.45482 -27.8409,-83.73295 -12.1219,-112.12693 2.3793,-29.26475 20.6552,-37.33395 7.0711,-87.88327 -12.6078,-24.84087 -17.5157,-18.88187 -25.2538,-24.24366 -15.8008,10.44101 0.4972,24.44855 7.0711,37.37564 2.9757,14.91576 6.1138,29.73411 -4.0406,52.52793 -10.134,17.44439 -23.6503,28.12424 -13.132,86.87312 3.0299,25.74435 25.3365,25.20222 2.0203,86.87312 -3.7773,22.61833 -1.4502,54.39322 -20.2031,54.54824 z"
       id="path9725"
       transform="translate(-1719,42.362183)"
       sodipodi:nodetypes="cccccccccccc" />
    <path
       style="color:#000000;fill:#154e73;fill-opacity:1;fill-rule:nonzero;stroke:none;stroke-width:1px;marker:none;visibility:visible;display:inline;overflow:visible;enable-background:accumulate"
       d="m 2374.8686,794.13193 c -20.4666,3.48754 -12.6837,10.11392 -10.1015,16.16244 12.2136,6.79576 24.5424,13.24597 39.396,12.12183 9.3814,-9.47472 13.1697,-24.54261 9.0913,-47.47717 10.9085,-73.93523 -29.1617,-57.21237 -5.0507,-101.01525 12.5963,-23.31259 9.218,-43.96275 6.0609,-64.64976 -20.1749,-42.2205 -27.1387,-40.40362 -31.3147,-29.29443 1.1573,19.951 6.555,22.94066 10.1015,33.33504 9.0223,30.67934 -0.8221,34.94517 -4.0406,48.48732 -22.2267,50.78108 -3.8317,52.81595 -2.0203,74.75129 -0.1897,26.34466 5.6997,63.97905 -12.1219,57.57869 z"
       id="path9727"
       transform="translate(-1719,42.362183)"
       sodipodi:nodetypes="ccccccccccc" />
    <path
       style="fill:url(#radialGradient10384);fill-opacity:1;stroke:#154e73;stroke-width:4.30000019;stroke-linecap:round;stroke-linejoin:round;stroke-miterlimit:4;stroke-opacity:1;stroke-dasharray:none"
       d="m 2976.9196,810.29437 c -5.1428,2.20424 -42.2512,-27.62468 -37.3757,-37.37564 26.8321,-10.6801 48.0902,-7.42522 69.7005,-5.05076 19.0551,-8.79142 17.1186,-23.18056 72.731,-22.22336 13.3213,5.96626 4.4856,23.01105 3.0305,36.36549 16.8756,7.32829 41.3047,-0.45031 50.5076,22.22336 7.2026,10.22838 -21.903,16.42251 -36.3655,24.24366 4.9333,17.25283 -1.6018,25.90445 -7.0711,35.35534 -32.0821,6.74737 -43.5961,-13.9293 -60.6091,-27.27412 -20.8324,6.03885 -26.1497,4.32019 -62.6295,18.18274 -35.8234,-0.14236 -10.5956,-23.54232 8.0813,-44.44671 z"
       id="path9729"
       transform="translate(-1719,42.362183)"
       sodipodi:nodetypes="ccccccccccc" />
    <path
       style="color:#000000;fill:#154e73;fill-opacity:1;fill-rule:nonzero;stroke:none;stroke-width:1px;marker:none;visibility:visible;display:inline;overflow:visible;enable-background:accumulate"
       d="m 3236.5288,804.23346 c 5.3667,12.02574 6.3613,27.45197 58.5888,3.03045 0.6279,-10.07114 -9.3066,-13.10069 -16.1624,-18.18274 1.6761,-23.74989 1.6734,-50.01789 -2.0203,-81.82236 27.3295,-20.4835 37.8079,-37.59678 52.5279,-55.55839 14.38,7.3493 25.544,1.83424 37.3756,-1.01015 3.3832,-6.3336 7.0918,-11.36553 13.132,-7.07107 9.6523,5.34964 20.3443,12.08565 22.2234,7.07107 23.7897,-15.215 20.8336,-22.78836 7.071,-27.27412 -9.0578,1.38041 -18.5802,2.29622 -30.3045,1.01015 -5.3875,-1.48279 -10.775,-2.78271 -16.1625,1.01016 -12.8223,9.35191 -16.044,5.90305 -21.2132,5.05076 1.5368,-12.36356 19.1281,-16.69991 30.3046,-24.24366 20.0449,3.24093 20.8349,-17.06915 31.3147,-10.10153 20.203,20.203 32.3249,25.59058 36.3655,16.16244 22.9928,-2.00964 13.4415,-7.63529 14.1422,-12.12183 2.0657,-10.22891 -11.5323,-15.23658 -25.2539,-20.20305 -11.0921,-4.69446 -15.1028,-2.30758 -21.2132,-2.0203 -4.8937,1.76852 -7.6792,5.83425 -20.203,0 l -10.1015,1.01015 c -4.912,-17.11709 1.7195,-29.61675 10.1015,-41.41625 9.0983,8.95116 26.9596,10.89192 49.4975,9.09137 13.8903,-7.15868 25.0986,-0.90748 36.3655,5.05076 13.3496,13.26338 19.9749,8.59541 17.1725,-21.2132 -26.9634,2.46066 -27.5572,-2.61287 -37.3756,-5.05077 -9.2696,-5.9223 -17.2945,-8.11026 -21.2132,2.02031 l -16.1624,-1.01015 c 3.8673,-6.90764 6.0134,-15.53647 20.203,-12.12183 31.8474,-1.87541 24.2426,-10.32617 8.0812,-20.20305 -11.2937,-4.76885 -20.6832,-1.92081 -29.2944,4.04061 -7.1961,1.28914 -11.9668,-0.65573 -11.1117,-10.10153 -7.779,-0.81589 -3.56,-10.63031 -1.0101,-19.1929 0.3176,-12.93975 1.0643,-26.4159 -9.0914,-26.26396 -5.6181,3.91598 -14.5786,1.14735 -10.1015,25.25381 4.8246,13.13198 15.4701,26.26397 13.132,39.39595 -13.0401,3.84474 -23.5392,9.72231 -23.2336,24.24366 -7.0522,10.46182 -12.6763,22.70874 -9.0913,46.46702 -3.4359,-8.1454 -10.0873,-8.78782 -6.0609,-34.34519 1.6012,-7.49498 0.8986,-11.15032 10.1015,-31.31473 -11.9738,-28.70248 -11.3633,-7.06742 -16.1625,-7.07107 -4.0761,9.42809 -10.5784,18.85618 -7.071,28.28427 -4.6381,31.81458 -1.1836,27.2126 -1.0102,37.37565 -6.8604,39.4933 -0.3222,20.92582 0,29.29442 -4.5145,6.5597 -8.47,14.51706 -18.1827,8.08122 -5.2913,-3.64619 -10.8579,-7.07205 -3.0305,-21.2132 13.1756,-24.65657 5.7136,-30.96852 -5.0507,-34.34519 -14.0504,1.71412 -17.6912,16.44016 -21.2132,31.31473 -0.4644,20.05788 4.8429,31.45801 15.1522,35.35534 -11.8925,25.54272 -18.6123,23.89308 -28.2842,26.26397 -6.1882,-12.52836 -2.4137,-28.37763 -1.0102,-43.43656 11.2247,-25.96534 -0.6572,-32.67516 -4.0406,-46.46702 6.6999,-4.44618 9.7841,-16.12381 11.1117,-31.31473 -3.1917,-11.6144 2.4995,-20.26779 7.0711,-29.29442 4.8462,1.0825 9.1469,3.25618 19.1929,-6.06092 12.4927,-19.37078 18.9161,-34.32753 2.0203,-32.32488 -8.7547,3.17151 -17.5093,4.68136 -26.264,18.18275 -3.7039,12.14347 -7.4078,12.21932 -11.1117,11.11168 0.013,-12.12183 -4.4981,-24.24367 8.0812,-36.3655 8.8824,-5.66035 11.9929,-14.20661 10.1016,-25.25381 -8.1258,-5.13249 -14.1647,-30.09099 -27.2742,12.12183 -4.353,11.2573 -10.1935,13.59024 -12.1218,39.39595 -0.7254,11.30602 3.0886,20.34237 13.132,26.26397 3.8928,14.73078 -0.039,19.0286 -4.0406,23.2335 -4.8462,-1.12947 -9.6968,-2.28548 -17.1726,-19.19289 -4.8087,-6.78348 -4.2623,-17.13709 -1.0102,-29.29443 0.617,-10.87274 -2.0037,-17.6984 -12.1218,-15.15229 -2.9479,6.47806 -6.8553,10.71716 -2.0203,35.35534 -1.4486,14.6981 0.5626,27.66626 15.1523,34.34519 5.8027,4.11642 12.68,5.81513 8.0812,33.33503 2.3366,12.11671 10.421,25.67039 3.0305,35.35534 -9.1347,17.31928 -5.0371,41.25474 -4.0406,63.63961 -8.2282,-1.7264 -12.9814,-10.40268 -13.132,-28.28427 -2.2394,-25.70818 -0.085,-55.80995 -20.2031,-63.63961 l -18.1827,-10.10152 c 6.0534,3.69632 8.4075,-8.42843 9.0914,-16.16244 l 3.0304,-24.24367 c 2.5162,-6.58126 5.3403,-12.64948 0,-32.32488 6.5194,-7.46152 8.2927,-16.10957 4.0406,-26.26396 -7.0711,-0.39068 -14.1421,-16.5128 -21.2132,15.15228 l -3.0304,15.15229 -8.0813,-21.2132 -9.0913,-4.04061 0,-17.17259 c -1.6472,-16.57196 -8.2128,-23.3071 -15.1523,-29.29443 -5.7242,-9.54032 -11.4484,-9.11342 -17.1726,-8.08122 1.7773,5.7242 -4.708,11.4484 9.0914,17.1726 7.3188,12.75077 7.4686,21.91706 4.0406,29.29442 l -17.1726,-9.09137 c -21.2181,-3.85919 -1.8349,10.7368 4.0406,19.19289 10.1677,11.3161 18.1924,26.91811 33.335,28.28428 l 5.0508,28.28427 c -2.1265,25.27141 9.2198,39.76462 20.203,54.54823 15.6012,-0.71079 17.5384,16.79713 17.1726,37.37565 12.0988,49.57964 9.9617,43.87026 15.1523,53.53808 7.1675,12.11236 9.3116,21.21066 3.0305,25.25382 -11.9721,-6.68761 -13.7286,-15.92912 -15.1523,-25.25382 0.037,-30.45102 -7.215,-31.74894 -12.1218,-42.4264 -12.4377,-9.54137 -32.9414,-1.33745 -33.3351,-37.37565 -8.7116,-21.50687 0.3019,-25.28864 4.0406,-34.34518 3.3311,-15.18987 -5.0182,-28.91969 -23.2335,-41.41626 1.0637,-7.92511 3.8158,-15.17487 -8.0812,-28.28427 -25.5646,-14.02196 -15.5696,10.74823 -13.132,27.27412 10.9516,6.73435 12.5702,13.4687 10.1015,20.20305 l -17.1726,-10.10153 c -2.2965,-10.07048 -14.6182,-14.12587 -30.3045,-16.16244 -1.6016,-11.11168 -2.8603,-22.22335 -20.2031,-33.33503 -22.8083,-4.40683 -30.6995,-13.78603 -29.2944,-26.26397 -3.7961,-27.08964 -19.148,-31.06783 -33.335,-37.37564 -8.2425,1.52236 -16.0558,3.47379 -11.1117,18.18275 35.646,1.30216 23.7244,9.9224 27.2741,16.16244 -1.5361,7.6972 2.8857,16.88386 12.1218,27.27411 -15.2268,-5.46197 -19.4491,0.0805 -27.2741,2.02031 -5.6383,19.27489 7.4752,14.44029 20.2031,10.10153 12.4585,-1.67908 24.9171,-8.6183 37.3756,10.10152 3.756,7.39043 5.7391,15.3718 17.1726,20.20305 l -24.2437,-1.01015 c -15.2409,-14.23664 -24.0867,-13.55151 -31.3147,-9.09137 -18.5462,5.04542 -19.1103,13.68724 -25.2538,21.2132 11.4782,16.79702 20.4588,8.61873 29.2944,-1.01015 7.3774,-7.00913 16.5436,-7.75717 29.2944,4.04061 13.6445,1.71323 25.3841,-4.19295 41.4163,7.07107 12.3082,-0.63119 24.6617,-1.57949 34.3452,16.16244 -15.71,3.12305 -34.451,3.82127 -37.3757,17.17259 -6.8413,10.0277 -1.5543,14.54252 21.2132,11.11168 6.8964,-5.92431 12.8236,-16.69429 22.2234,-10.10153 8.5845,1.68715 12.6258,12.46077 13.132,30.30458 8.1699,12.62991 9.9445,20.99629 10.1015,28.28427 -17.5099,-17.342 -23.1408,-13.89563 -30.3046,-13.13198 -17.488,0.43437 3.0512,11.23976 13.132,19.19289 12.4972,7.86047 22.4674,8.14 32.3249,8.08122 10.1015,-2.69368 16.1624,1.34682 18.1827,12.12184 7.3812,18.3895 6.5279,31.28931 6.061,44.44671 5.1572,12.58236 13.503,18.7875 21.2132,26.26396 7.8436,6.15319 13.3366,15.44061 13.1319,32.32489 1.0959,20.49893 -2.1851,37.35047 -17.1725,44.44671 z"
       id="path9731"
       transform="translate(-1719,42.362183)"
       sodipodi:nodetypes="ccccccccccccccccccccccccccccccccccccccccccccccccccccccccccccccccccccccccccccccccccccccccccccccccccccccccccccccccccccccccccccccccccccccc" />
    <path
       style="fill:url(#radialGradient10348);fill-opacity:1;stroke:none"
       d="m 3741.605,767.86797 c -0.4749,10.33894 22.1437,32.36473 26.264,30.30457 12.0872,1.98566 23.9009,3.69791 33.335,3.03046 9.0741,-7.7445 2.6732,-15.48901 2.0203,-23.23351 -13.5778,-6.39763 -7.6451,-12.79527 -9.0913,-19.1929 -8.0812,-3.96481 -16.1625,-6.66083 -24.2437,0 -14.132,-1.00608 -16.3007,2.77312 -17.1726,7.07107 l -11.1117,2.02031 z"
       id="path9733"
       transform="translate(-1719,42.362183)"
       sodipodi:nodetypes="cccccccc" />
    <path
       style="fill:url(#radialGradient10340);fill-opacity:1;stroke:none"
       d="m 3808.2751,749.68522 c -1.1167,6.67681 3.6565,18.19459 13.132,22.22336 13.3609,12.52566 19.9642,8.15737 28.2843,8.08122 8.8834,-2.62935 9.9179,-9.1832 8.0812,-17.1726 1.37,-1.58845 4.5097,-1.05336 -7.0711,-18.18274 -6.3976,8.48829 -12.7953,11.90982 -19.1929,-1.01016 -10.5194,-4.57982 -18.3059,4.30943 -23.2335,6.06092 z"
       id="path9735"
       transform="translate(-1719,42.362183)"
       sodipodi:nodetypes="ccccccc" />
    <path
       style="fill:url(#radialGradient10332);fill-opacity:1;stroke:none"
       d="m 2093.3157,838.51442 c -2.7433,11.60761 5.223,22.39142 37.3757,31.31473 14.1421,4.25674 28.2843,9.76591 42.4264,1.01015 8.128,-0.77161 13.6895,-5.39305 11.1117,-22.22335 0,0 5.1118,-14.44314 1.0101,-20.20305 -20.0954,-28.21944 -48.8419,-9.01798 -47.4771,-6.06092 l -20.2031,10.10153 -19.1929,-8.08122 -5.0508,14.14213 z"
       id="path9737"
       sodipodi:nodetypes="ccccscccc" />
    <path
       id="path10390"
       transform="translate(-1719,42.362183)"
       style="fill:none;stroke:#154e73;stroke-width:3.20000005;stroke-linecap:round;stroke-linejoin:round;stroke-miterlimit:4;stroke-opacity:1;stroke-dasharray:none;filter:url(#filter10393)"
       d="m 3036.4286,790 c -77.9184,27.02249 -74.4944,57.79815 -79.2857,59.28571 M 3080,750.71429 c -19.9275,9.93532 -38.1517,19.36242 -42.8571,40.71428 -41.1075,-22.43504 -93.4925,-22.51519 -92.8572,-15 m 144.2857,84.28572 c 1.0061,-25.66818 -31.9443,-50.34724 -52.1428,-70.71429 32.8513,-4.02428 68.101,5.92907 97.1428,17.14286" />
  </g>
</svg>
